PathFileType	4	(X/Y/Z)	OpenSim_Sub09_EMGBaseline_Accel.trc
DataRate	CameraRate	NumFrames	NumMarkers	Units	OrigDataRate	OrigDataStartFrame	OrigNumFrames
100	100	20	8	m	100	5476	7301
Frame#	Time	torso_imu_offset_imu	pelvis_imu_offset_imu	tibia_r_imu_offset_imu	femur_r_imu_offset_imu	tibia_l_imu_offset_imu	femur_l_imu_offset_imu	toes_r_imu_offset_imu	toes_l_imu_offset_imu
				X1	Y1	Z1	X2	Y2	Z2	X3	Y3	Z3	X4	Y4	Z4	X5	Y5	Z5	X6	Y6	Z6	X7	Y7	Z7	X8		Y8	Z8	

5476	54.75000000	8.67610600	1.24994500	6.52503000	8.92701200	-2.60555400	2.27246200	11.40505100	5.16276200	0.56590800	6.80327600	-3.19666700	2.57247500	9.97421700	-0.47281600	-0.51189000	9.14003700	1.65078400	-1.79458500	15.89758800	-1.62520700	12.41183000	5.20801900	2.08950800	10.87013900
5477	54.76000000	8.79153500	1.22535600	6.50414100	8.97470500	-2.45209600	2.22765800	11.58688700	4.04941900	1.24016100	6.90966100	-3.33392400	2.66094800	10.05400100	-0.43901700	-0.62653400	9.22446400	1.52690600	-1.59335200	16.82387800	-2.71244700	10.99627600	4.92693400	2.34526300	11.06288500
5478	54.77000000	8.77394400	1.24289700	6.50857200	8.91356200	-2.23318900	2.07610700	11.65395300	3.45206900	1.97227100	7.29212800	-3.38063900	3.09995700	10.04092800	-0.70676400	-0.55011600	9.41833600	1.33890500	-1.40619400	17.90660200	-4.33962800	9.06416700	4.76261600	2.50786700	11.06650200
5479	54.78000000	8.85710100	1.26774900	6.44361800	8.93347600	-1.80573400	1.98469700	11.54166800	2.70424700	2.88923200	7.76232500	-3.47958600	3.60602100	10.00928200	-1.00037100	-0.55641200	9.57586500	1.30074800	-1.33107100	18.60002400	-5.31524600	7.10229400	4.94703000	2.33881600	11.01344400
5480	54.79000000	8.93056600	1.28323800	6.40098600	8.95715400	-1.53478600	1.88690700	11.22531900	1.34013600	2.59457300	8.42080200	-3.76295300	4.05861500	10.01339600	-1.34778400	-0.44860000	9.56252900	1.30481500	-1.38708200	18.28633300	-4.24654000	5.16200200	5.14566100	2.17465800	11.07286200
5481	54.80000000	9.01744500	1.28581200	6.38834700	9.02513300	-1.14107600	1.90132300	10.67353100	0.31979800	2.40248500	9.11364600	-4.14629400	4.27304800	10.13521800	-1.33038300	-0.27616700	9.59121700	1.32145600	-1.38294800	17.10684400	-2.51316700	3.47392300	4.90068100	2.03173500	11.07363600
5482	54.81000000	9.08689600	1.24642900	6.40906300	8.96435600	-1.15293200	1.93822500	9.81394300	-0.59395500	2.41991300	9.75541000	-4.58108300	4.22869700	10.17786400	-1.05771600	-0.12984100	9.54641500	1.31289300	-1.33029600	15.68086300	-0.37853200	2.02194000	4.80805000	2.31408100	11.19702300
5483	54.82000000	9.12411000	1.15557600	6.42495300	8.95369700	-1.23363000	2.07692100	8.95325300	-0.91754200	2.24447900	10.32244700	-5.43211300	4.06414000	10.17074200	-0.61622300	0.06662700	9.55478800	1.24503100	-1.31267700	14.62230400	0.76710800	0.60730100	5.12524700	2.13141100	11.08833300
5484	54.83000000	9.17684500	1.11593200	6.33145100	8.88368300	-1.51688600	2.14123500	8.42945500	-0.87253200	1.91892700	10.75459100	-6.46877000	3.93524900	10.04416100	-0.24699900	-0.04408400	9.50431000	1.29818600	-1.36089300	14.66051400	1.76295500	-0.74988300	4.82957600	2.18842500	11.15321200
5485	54.84000000	9.18736500	1.04797900	6.35557900	8.80455700	-1.75055200	2.30119800	8.04144400	-0.82846800	1.47141900	10.88952200	-7.46775900	3.63337700	10.09852900	0.23688000	0.01639000	9.31262700	1.44356600	-1.45928500	14.74361000	2.68195100	-2.32575200	4.98113100	2.11245200	11.10591500
5486	54.85000000	9.21960700	1.07296400	6.35100100	8.71201100	-1.95497900	2.30673800	7.51369200	-0.86487100	1.49782600	10.52985000	-8.17238100	3.21449100	10.16154100	0.51818100	-0.28223300	9.27666500	1.61009100	-1.69604400	14.70683300	3.31279400	-3.95604700	4.74520400	2.35195800	11.44112100
5487	54.86000000	9.24217600	1.06341700	6.36010600	8.73265600	-2.17947000	2.10836900	7.04389800	-0.88812500	2.14252100	9.73612200	-8.48290000	2.73864900	10.25853800	0.38659600	-0.15583500	9.18251400	1.72237600	-1.87750700	15.42472400	3.22643100	-4.84794200	4.72568300	2.31544700	11.41468400
5488	54.87000000	9.27811600	1.03836800	6.40021300	8.67004400	-2.40302800	1.77505100	6.83510400	-1.21943400	1.80372500	8.88433800	-8.46753100	2.48380600	10.18478900	0.11667500	-0.86399900	9.17671500	1.94181500	-2.03115200	16.05370700	2.89486300	-4.65359900	4.99433000	2.10607300	11.32312900
5489	54.88000000	9.22931100	1.08877800	6.33301800	8.71595500	-2.71500600	1.39676800	6.76515300	-1.19069600	1.08683200	8.24692000	-8.13101700	2.81864900	10.27902100	-0.71094000	-0.86955900	9.15615300	2.10459300	-2.16266700	15.64987600	2.38200700	-3.51184700	5.08009100	2.16110200	11.49972300
5490	54.89000000	9.29362500	1.09943400	6.29607400	8.76966700	-3.00496800	0.99346400	6.75559100	-0.42128500	0.25826300	7.75148600	-7.39669100	3.50518100	10.43674000	-1.61336500	-0.21400000	9.23992300	2.11458200	-2.30706500	14.95131300	2.05227400	-2.04181400	4.65350100	1.73076400	11.77857900
5491	54.90000000	9.38511600	1.06175600	6.30967000	8.81999600	-3.30521800	0.63098400	6.54791700	0.71977100	-0.13179300	7.29216800	-6.37298200	4.04743300	10.81760900	-2.37824200	0.52105300	9.60932100	2.11637200	-2.44339000	13.56972800	1.28018400	-0.84552800	4.44226800	0.95824900	12.02271500
5492	54.91000000	9.48964300	1.04387400	6.28672900	8.97821200	-3.49727700	0.29262000	6.06245900	1.99355000	0.05448100	6.95098500	-4.97126500	4.09763300	11.12912200	-2.56603900	1.49833700	10.24790000	2.14249400	-2.46430100	10.92936801	-0.19336000	1.29173600	4.85486900	2.54560800	12.02831600
5493	54.92000000	9.55896100	1.04252400	6.29376500	9.23722700	-3.58512000	0.46340100	5.67896200	3.13527900	0.15443100	6.65184100	-3.36192500	3.88588400	10.79703000	-2.26083200	1.87320800	10.66013800	2.12570200	-2.50148500	-0.91729399	-3.75089500	2.14093300	4.92673900	1.69985200	12.14245600
5494	54.93000000	9.82205300	1.08898000	6.43778700	10.14734600	-3.34725700	1.76525300	6.40104000	3.42681200	-0.05906900	6.89934700	-1.60939800	3.97677300	10.95518300	-1.49074200	1.74874300	10.71851900	2.26855900	-2.59698300	-8.92246800	-4.56016500	12.46807499	4.75330800	1.44768600	12.42866700
5495	54.94000000	10.91920900	1.03784700	6.68539700	11.40412900	-2.24964800	2.96846500	9.72353600	2.48687100	2.65796699	8.34811900	0.29467400	3.28564700	11.95885400	-0.95874200	1.16517300	10.81474800	2.53648200	-2.35641100	-5.81640901	-5.02364800	16.15835600	4.40103500	1.30191600	12.96843600
